HIERARCHY
ROOT Hips
{
	OFFSET -13.091600 -28.302996 44.698402
	CHANNELS 6 Xposition Yposition Zposition Zrotation Xrotation Yrotation
	JOINT Chest
	{
		OFFSET -0.673000 0.623899 5.369202
		CHANNELS 6 Xposition Yposition Zposition Zrotation Xrotation Yrotation
		JOINT Chest2
		{
			OFFSET 0.000000 0.000000 4.415001
			CHANNELS 6 Xposition Yposition Zposition Zrotation Xrotation Yrotation
			JOINT Neck
			{
				OFFSET 0.000000 0.000002 10.273300
				CHANNELS 6 Xposition Yposition Zposition Zrotation Xrotation Yrotation
				JOINT Head
				{
					OFFSET 0.000000 0.000000 2.173897
					CHANNELS 6 Xposition Yposition Zposition Zrotation Xrotation Yrotation
					End Site
					{
						OFFSET 0.000000 0.000000 9.961800
					}
				}
			}
			JOINT LeftCollar
			{
				OFFSET 2.359900 -0.565201 5.928101
				CHANNELS 6 Xposition Yposition Zposition Zrotation Xrotation Yrotation
				JOINT LeftShoulder
				{
					OFFSET 5.443700 0.000000 0.000000
					CHANNELS 6 Xposition Yposition Zposition Zrotation Xrotation Yrotation
					JOINT LeftElbow
					{
						OFFSET 0.000000 0.000000 -10.615799
						CHANNELS 6 Xposition Yposition Zposition Zrotation Xrotation Yrotation
						JOINT LeftWrist
						{
							OFFSET 0.000000 -0.000002 -13.110302
							CHANNELS 6 Xposition Yposition Zposition Zrotation Xrotation Yrotation
							End Site
							{
								OFFSET 0.000000 0.000000 -2.173901
							}
						}
					}
				}
			}
			JOINT RightCollar
			{
				OFFSET -2.636600 -1.718800 6.889698
				CHANNELS 6 Xposition Yposition Zposition Zrotation Xrotation Yrotation
				JOINT RightShoulder
				{
					OFFSET -4.139101 0.000000 0.000000
					CHANNELS 6 Xposition Yposition Zposition Zrotation Xrotation Yrotation
					JOINT RightElbow
					{
						OFFSET 0.000000 0.000000 -10.471802
						CHANNELS 6 Xposition Yposition Zposition Zrotation Xrotation Yrotation
						JOINT RightWrist
						{
							OFFSET 0.000000 0.000000 -12.281898
							CHANNELS 6 Xposition Yposition Zposition Zrotation Xrotation Yrotation
							End Site
							{
								OFFSET 0.000000 -0.000002 -2.173901
							}
						}
					}
				}
			}
		}
	}
	JOINT LeftHip
	{
		OFFSET 2.273400 0.176701 -2.518002
		CHANNELS 6 Xposition Yposition Zposition Zrotation Xrotation Yrotation
		JOINT LeftKnee
		{
			OFFSET 0.000000 -0.000002 -20.456402
			CHANNELS 6 Xposition Yposition Zposition Zrotation Xrotation Yrotation
			JOINT LeftAnkle
			{
				OFFSET 0.000000 -0.000002 -16.635300
				CHANNELS 6 Xposition Yposition Zposition Zrotation Xrotation Yrotation
				End Site
				{
					OFFSET 0.000000 -8.812399 0.000001
				}
			}
		}
	}
	JOINT RightHip
	{
		OFFSET -1.914800 0.018101 -2.699299
		CHANNELS 6 Xposition Yposition Zposition Zrotation Xrotation Yrotation
		JOINT RightKnee
		{
			OFFSET 0.000000 -0.000002 -20.148901
			CHANNELS 6 Xposition Yposition Zposition Zrotation Xrotation Yrotation
			JOINT RightAnkle
			{
				OFFSET 0.000000 -0.000002 -16.838301
				CHANNELS 6 Xposition Yposition Zposition Zrotation Xrotation Yrotation
				End Site
				{
					OFFSET 0.000000 -8.328398 0.000001
				}
			}
		}
	}
}
MOTION
Frames: 4
Frame Time: 0.041667
-5.489702 32.618507 44.105705 1469.370728 14.821587 8.094677 -0.673002 0.623895 5.369204 -4.878904 10.175415 3.489557 0.000004 0.000004 4.414996 0.226334 -4.755629 -0.610568 -0.000003 -0.000005 10.273301 3.047184 12.121982 -7.309082 0.000000 -0.000001 2.173902 0.518517 -1.327145 0.278647 2.359898 -0.565203 5.928100 -1.380949 6.031886 -6.387943 5.443696 0.000003 -0.000003 128.879427 166.165129 -245.913858 -0.000001 -0.000004 -10.615794 543.680217 -186.220750 179.688043 -0.000007 -0.000011 -13.110300 -399.493257 -369.925723 401.799374 -2.636604 -1.718806 6.889700 176.918005 -180.784275 185.363725 -4.139093 0.000000 0.000003 416.802049 -395.462243 477.997238 -0.000005 -0.000002 -10.471786 -29.470917 -37.844364 -396.121411 0.000007 -0.000003 -12.281898 439.624033 7.932579 59.581256 2.273395 0.176701 -2.518003 -89.506842 -136.655761 -119.729842 -0.000003 -0.000005 -20.456392 54.311383 134.792130 -118.267061 -0.000005 -0.000003 -16.635296 27.666668 39.682166 17.999439 -1.914803 0.018099 -2.699305 143.114060 205.671462 156.074522 -0.000000 -0.000002 -20.148903 22.919367 41.230901 -9.915990 0.000001 -0.000006 -16.838303 -12.384668 16.579712 -1.424476
-5.548005 32.664406 44.017002 1469.129212 14.896330 8.276205 -0.672999 0.623891 5.369207 -4.884182 9.902893 3.156414 0.000001 0.000001 4.415001 0.269259 -4.762733 -0.616043 -0.000002 -0.000005 10.273303 2.337186 12.018877 -7.282371 -0.000002 -0.000008 2.173903 0.356018 -1.385672 0.186760 2.359900 -0.565205 5.928103 -1.233648 6.023632 -6.645599 5.443694 0.000004 -0.000005 130.185837 165.210337 -246.665834 -0.000000 -0.000006 -10.615797 544.090083 -186.292180 179.622924 -0.000002 -0.000008 -13.110301 -398.666995 -370.024843 402.118262 -2.636604 -1.718803 6.889701 176.477881 -180.489333 184.496988 -4.139092 -0.000006 0.000000 415.120784 -396.000680 476.965224 -0.000005 -0.000003 -10.471797 -28.680302 -38.543294 -395.569258 0.000003 -0.000001 -12.281899 438.571965 8.449860 58.550799 2.273400 0.176698 -2.518013 -89.049903 -136.521111 -119.148962 0.000003 -0.000001 -20.456400 53.879565 134.499457 -117.807677 -0.000004 0.000001 -16.635296 27.592737 39.324814 18.781977 -1.914799 0.018098 -2.699298 142.701517 205.865672 155.445885 0.000001 -0.000010 -20.148899 23.625090 41.783566 -10.115875 -0.000003 -0.000006 -16.838301 -12.583552 16.403188 -1.338004
-5.605403 32.709816 43.928600 1468.918733 14.950924 8.405257 -0.673002 0.623907 5.369215 -4.917403 9.679313 2.887124 0.000004 0.000004 4.415005 0.324419 -4.776286 -0.620842 -0.000004 -0.000002 10.273293 1.599047 11.903237 -7.228730 0.000001 -0.000006 2.173891 0.272510 -1.425926 0.124346 2.359897 -0.565200 5.928098 -1.135984 6.043963 -6.919877 5.443696 -0.000004 -0.000004 131.652907 164.498085 -247.505565 -0.000002 -0.000002 -10.615790 544.027518 -186.236828 179.643565 -0.000002 -0.000001 -13.110301 -397.618725 -369.977906 402.496983 -2.636602 -1.718801 6.889694 176.105568 -180.311817 183.331348 -4.139101 -0.000006 0.000005 413.445257 -396.022865 476.304936 0.000006 -0.000002 -10.471800 -25.793713 -40.428682 -393.398897 0.000006 0.000000 -12.281895 435.334893 8.929917 57.624523 2.273395 0.176715 -2.517999 -88.615851 -136.413385 -118.614322 0.000001 0.000002 -20.456400 53.459665 134.257969 -117.339440 -0.000005 -0.000005 -16.635296 27.440263 38.980405 19.753682 -1.914801 0.018114 -2.699296 142.217994 206.059403 154.830321 -0.000001 -0.000002 -20.148903 24.384199 42.373384 -10.326486 0.000002 -0.000001 -16.838301 -12.788579 16.214010 -1.218391
-5.662603 32.753807 43.840202 1468.713281 15.011707 8.509086 -0.673003 0.623898 5.369207 -4.967340 9.463789 2.648263 0.000003 0.000001 4.415005 0.392488 -4.795498 -0.625298 -0.000003 -0.000010 10.273301 0.828540 11.793945 -7.125399 -0.000002 0.000001 2.173894 0.248696 -1.446827 0.066160 2.359895 -0.565213 5.928093 -1.102345 6.073274 -7.233464 5.443699 -0.000006 0.000000 133.274927 164.068479 -248.358792 -0.000001 -0.000003 -10.615792 543.816383 -186.313559 179.622842 -0.000006 -0.000002 -13.110303 -396.608048 -370.081178 402.884336 -2.636606 -1.718811 6.889699 175.877371 -180.238720 182.086327 -4.139089 0.000001 0.000001 411.730661 -395.908473 475.931242 -0.000005 -0.000001 -10.471796 -23.168902 -42.000285 -391.283888 0.000010 0.000004 -12.281896 432.086564 9.177818 56.935449 2.273393 0.176704 -2.518008 -88.222207 -136.266249 -118.118669 0.000002 -0.000002 -20.456396 53.142963 134.052435 -116.907581 -0.000004 -0.000001 -16.635298 27.273224 38.732124 20.726380 -1.914806 0.018105 -2.699306 141.633371 206.247247 154.174513 -0.000001 -0.000007 -20.148901 25.167813 42.984669 -10.501446 0.000000 -0.000001 -16.838301 -12.955734 16.046476 -1.082494
